# AST/ASF file generated using VICON BodyLanguage
# -----------------------------------------------
:version 1.10
:name VICON
:units
  mass 1.0
  length 0.45
  angle deg
:documentation
   .ast/.asf automatically generated from VICON data using
   VICON BodyBuilder and BodyLanguage model FoxedUp or BRILLIANT.MOD
:root
   order TX TY TZ RX RY RZ
   axis XYZ
   position 0 0 0  
   orientation 0 0 0 
:bonedata
  begin
     id 1 
     name lhipjoint
     direction 0.707368 -0.647095 0.284426 
     length 2.60678 
     axis 0 0 0  XYZ
  end
  begin
     id 2 
     name lfemur
     direction 0.34202 -0.939693 0  
     length 6.63812  
     axis 0 0 20  XYZ
    dof rx ry rz
    limits (-160.0 20.0)
           (-70.0 70.0)
           (-60.0 70.0)
  end
  begin
     id 3 
     name ltibia
     direction 0.34202 -0.939693 0   
     length 7.51178   
     axis 0 0 20   XYZ
    dof rx
    limits (-10.0 170.0)
  end
  begin
     id 4 
     name lfoot
     direction 0.121251 -0.333133 0.935051   
     length 1.83716   
     axis -90 7.62852e-016 20   XYZ
    dof rx rz
    limits (-45.0 90.0)
           (-70.0 20.0)
  end
  begin
     id 5 
     name ltoes
     direction 1.53611e-011 -4.21962e-011 1   
     length 0.916133   
     axis -90 7.62852e-016 20   XYZ
    dof rx
    limits (-90.0 20.0)
  end
  begin
     id 6 
     name rhipjoint
     direction -0.692419 -0.660507 0.290321   
     length 2.55385  
     axis 0 0 0  XYZ 
  end
  begin
     id 7 
     name rfemur
     direction -0.34202 -0.939693 0   
     length 7.29079   
     axis 0 0 -20   XYZ
    dof rx ry rz
    limits (-160.0 20.0)
           (-70.0 70.0)
           (-70.0 60.0)
  end
  begin
     id 8 
     name rtibia
     direction -0.34202 -0.939693 0   
     length 7.47143   
     axis 0 0 -20   XYZ
    dof rx
    limits (-10.0 170.0)
 end
 begin
     id 9 
     name rfoot
     direction -0.119907 -0.329441 0.936532   
     length 1.79439  
     axis -90 -7.62852e-016 -20   XYZ
    dof rx rz
    limits (-45.0 90.0)
           (-20.0 70.0)
  end
  begin
     id 10 
     name rtoes
     direction -1.53571e-011 -4.21961e-011 1   
     length 0.896039   
     axis -90 -7.62852e-016 -20   XYZ
    dof rx
    limits (-90.0 20.0)
  end
  begin
     id 11 
     name lowerback
     direction 0.0367721 0.992912 -0.113016   
     length 1.73542   
     axis 0 0 0   XYZ
    dof rx ry rz
    limits (-20.0 45.0)
           (-30.0 30.0)
           (-30.0 30.0)
  end
  begin
     id 12 
     name upperback
     direction -0.000314626 0.990678 0.136227   
     length 1.7514   
     axis 0 0 0   XYZ
    dof rx ry rz
    limits (-20.0 45.0)
           (-30.0 30.0)
           (-30.0 30.0)
  end
  begin
     id 13 
     name thorax
     direction -0.0226159 0.981151 0.191917   
     length 1.71471   
     axis 0 0 0   XYZ
    dof rx ry rz
    limits (-20.0 45.0)
           (-30.0 30.0)
           (-30.0 30.0)
  end
  begin
     id 14 
     name lowerneck
     direction 0.0219333 0.998071 0.0580739   
     length 1.65882   
     axis 0 0 0   XYZ
    dof rx ry rz
    limits (-20.0 45.0)
           (-30.0 30.0)
           (-30.0 30.0)
  end
  begin
     id 15 
     name upperneck
     direction 0.0384529 0.980058 -0.194957   
     length 1.6612   
     axis 0 0 0   XYZ
    dof rx ry rz
    limits (-20.0 45.0)
           (-30.0 30.0)
           (-30.0 30.0)
  end
  begin
     id 16
     name head
     direction 0.00592123 0.997421 -0.0715234  
     length 1.68077  
     axis 0 0 0   XYZ
    dof rx ry rz
    limits (-20.0 45.0)
           (-30.0 30.0)
           (-30.0 30.0)
  end
  begin
     id 17 
     name lclavicle
     direction 0.904803 0.417826 0.0821728  
     length 3.42227  
     axis 0 0 0   XYZ
    dof ry rz
    limits (-20.0 10.0)
           (0.0 20.0)
  end
  begin
     id 18 
     name lhumerus
     direction 1 -4.48965e-011 -2.68786e-027   
     length 5.11878   
     axis -180 -30 -90   XYZ
    dof rx ry rz
    limits (-60.0 90.0)
           (-90.0 90.0)
           (-90.0 90.0)
  end
  begin
     id 19
     name lradius
     direction 1 -4.48965e-011 2.61168e-028   
     length 3.59971   
     axis -180 -30 -90   XYZ
    dof rx
    limits (-10.0 170.0)
  end
  begin
     id 20
     name lwrist
     direction 1 -4.48965e-011 1.58672e-027   
     length 1.79985   
     axis -1.65735e-015 90 90   XYZ
    dof ry
    limits (-180.0 0.0)
 end
  begin
     id 21 
     name lhand
     direction 1 -4.48942e-011 3.17344e-027   
     length 0.62877   
     axis -2.02492e-015 90 90   XYZ
    dof rx rz
    limits (-90.0 90.0)
           (-45.0 45.0)
  end
  begin
     id 22 
     name lfingers
     direction 1 -4.49011e-011 6.34687e-027   
     length 0.506931   
     axis -4.04985e-015 90 90   XYZ
    dof rx
    limits (0.0 90.0)
  end
  begin
     id 23
     name lthumb
     direction 0.707107 -6.34982e-011 0.707107   
     length 0.727854   
     axis -90 45 2.85299e-015   XYZ
    dof rx rz
    limits (-45.0 45.0)
           (-45.0 45.0)
  end
  begin
     id 24 
     name rclavicle
     direction -0.945647 0.32488 0.0143075   
     length 3.52737  
     axis 0 0 0   XYZ 
    dof ry rz
    limits (-10.0 20.0)
           (-20.0 0.0)
  end
  begin
     id 25 
     name rhumerus
     direction -1 -4.48962e-011 1.92182e-027  
     length 5.4902   
     axis -180 30 90   XYZ
    dof rx ry rz
    limits (-90.0 60.0)
           (-90.0 90.0)
           (-90.0 90.0)
  end
  begin
     id 26 
     name rradius
     direction -1 -4.48967e-011 -5.97193e-028   
     length 3.20659   
     axis -180 30 90   XYZ
    dof rx
    limits (-10.0 170.0)
  end
  begin
     id 27 
     name rwrist
     direction -1 -4.48964e-011 1.58672e-027   
     length 1.6033   
     axis -1.65735e-015 -90 -90   XYZ
    dof ry
    limits (-180.0 0.0)
  end
  begin
     id 28
     name rhand
     direction -1 -4.49006e-011 3.17344e-027   
     length 0.691885   
     axis -2.02492e-015 -90 -90   XYZ
    dof rx rz
    limits (-90.0 90.0)
           (-45.0 45.0)
  end
  begin
     id 29
     name rfingers
     direction -1 -4.48908e-011 6.34687e-027   
     length 0.557815   
     axis -4.04985e-015 -90 -90   XYZ
    dof rx
    limits (0.0 90.0)
  end
  begin
     id 30
     name rthumb
     direction -0.707107 -6.34999e-011 0.707107   
     length 0.800915   
     axis -90 -45 -2.85299e-015   XYZ
    dof rx rz
    limits (-45.0 45.0)
           (-45.0 45.0)
  end
:hierarchy
  begin
    root lhipjoint rhipjoint lowerback
    lhipjoint lfemur
    lfemur ltibia
    ltibia lfoot
    lfoot ltoes
    rhipjoint rfemur
    rfemur rtibia
    rtibia rfoot
    rfoot rtoes
    lowerback upperback
    upperback thorax
    thorax lowerneck lclavicle rclavicle
    lowerneck upperneck
    upperneck head
    lclavicle lhumerus
    lhumerus lradius
    lradius lwrist
    lwrist lhand lthumb
    lhand lfingers
    rclavicle rhumerus
    rhumerus rradius
    rradius rwrist
    rwrist rhand rthumb
    rhand rfingers
  end

#!OML:ASF I:\Actors\actors\Patient Classification 1\Patient 1\Session 1\Subject1.ASF
:FULLY-SPECIFIED
:DEGREES
59
root 0.88348 17.446 9.16188 11.6685 0.756835 -8.45776
lowerback -4.90952 0.916482 5.40701
upperback -10.3771 1.36769 1.94697
thorax -8.11789 0.354195 -0.987304
lowerneck -1.56092 -13.3037 -13.0117
upperneck 17.2428 -20.0491 13.7889
head 8.32128 -9.60373 4.70284
rclavicle -7.20594e-015 -1.19271e-015
rhumerus -40.6487 -22.8993 -73.8863
rradius 20.5697
rwrist 29.1515
rhand 6.64922 -34.6863
rfingers 7.12502
rthumb 31.9417 -61.904
lclavicle -7.20594e-015 -1.19271e-015
lhumerus -48.5643 38.4245 58.936
lradius 12.9366
lwrist -57.3648
lhand -17.7304 -10.5453
lfingers 7.12502
lthumb 8.53048 19.2624
rfemur -4.19946 25.849 24.4789
rtibia 1.55353
rfoot -12.4034 -24.1051
rtoes 0.958076
lfemur 5.09333 -50.6571 -12.0424
ltibia -4.59402
lfoot -25.7724 56.123
ltoes 12.2143
60
root 0.884244 17.4471 9.16177 11.6298 0.792944 -8.46468
lowerback -4.84854 0.917585 5.44009
upperback -10.3681 1.37345 1.94332
thorax -8.14263 0.353887 -1.01051
lowerneck -1.58049 -13.3121 -13.0485
upperneck 17.2001 -20.0689 13.8754
head 8.32708 -9.60929 4.73197
rclavicle -6.90777e-015 -8.34896e-015
rhumerus -40.6646 -22.9645 -73.8438
rradius 20.5553
rwrist 29.221
rhand 6.67213 -34.4429
rfingers 7.12502
rthumb 31.9636 -61.6561
lclavicle -6.90777e-015 -8.34896e-015
lhumerus -48.6074 38.462 58.8591
lradius 12.9444
lwrist -57.4711
lhand -17.7142 -10.5222
lfingers 7.12502
lthumb 8.54615 19.2849
rfemur -4.12674 25.8962 24.5169
rtibia 1.52049
rfoot -12.4232 -24.1947
rtoes 1.0685
lfemur 5.11615 -50.5953 -12.0429
ltibia -4.62522
lfoot -25.4196 56.1285
ltoes 11.718
61
root 0.884984 17.4474 9.16213 11.62 0.810668 -8.46213
lowerback -4.81843 0.920017 5.46073
upperback -10.3673 1.37905 1.94138
thorax -8.15875 0.35462 -1.02454
lowerneck -1.62462 -13.3166 -13.0349
upperneck 17.1855 -20.0743 13.8976
head 8.3319 -9.60742 4.73328
rclavicle -1.48592e-014 -3.49861e-014
rhumerus -40.6733 -23.0206 -73.7977
rradius 20.5145
rwrist 29.3467
rhand 6.59907 -34.4192
rfingers 7.12502
rthumb 31.894 -61.6464
lclavicle -1.48592e-014 -3.49861e-014
lhumerus -48.7624 38.6895 58.58
lradius 12.9186
lwrist -57.825
lhand -17.7953 -10.5873
lfingers 7.12502
lthumb 8.46785 19.2229
rfemur -4.09783 25.9695 24.5241
rtibia 1.52364
rfoot -12.502 -24.2527
rtoes 1.4145
lfemur 5.0546 -50.4075 -11.9778
ltibia -4.65798
lfoot -25.046 55.9999
ltoes 11.3106
62
root 0.885752 17.4474 9.16229 11.6247 0.825469 -8.45724
lowerback -4.79945 0.918171 5.46357
upperback -10.37 1.37879 1.94992
thorax -8.17293 0.354338 -1.01734
lowerneck -1.69376 -13.3233 -12.9646
upperneck 17.1946 -20.0686 13.832
head 8.33149 -9.60098 4.69775
rclavicle 1.91827e-014 -3.57812e-014
rhumerus -40.6737 -22.9829 -73.7979
rradius 20.5208
rwrist 29.347
rhand 6.50535 -34.6732
rfingers 7.12502
rthumb 31.8047 -61.9181
lclavicle 1.91827e-014 -3.57812e-014
lhumerus -48.8838 38.8806 58.3728
lradius 12.8922
lwrist -58.1265
lhand -17.9018 -10.6154
lfingers 7.12502
lthumb 8.36513 19.199
rfemur -4.1055 25.9863 24.517
rtibia 1.54904
rfoot -12.5134 -24.2591
rtoes 1.38853
lfemur 5.00802 -50.3331 -11.9395
ltibia -4.66366
lfoot -24.8635 55.9356
ltoes 11.2166
63
root 0.887296 17.447 9.16119 11.6284 0.850996 -8.48058
lowerback -4.77235 0.913719 5.51113
upperback -10.3763 1.37579 1.95473
thorax -8.19594 0.348741 -1.0389
lowerneck -1.76106 -13.318 -12.861
upperneck 17.2119 -20.0454 13.747
head 8.3251 -9.58565 4.65407
rclavicle -7.65321e-015 1.11319e-014
rhumerus -40.6719 -22.8955 -73.8549
rradius 20.5648
rwrist 29.2318
rhand 6.44714 -34.9753
rfingers 7.12502
rthumb 31.7493 -62.2312
lclavicle -7.65321e-015 1.11319e-014
lhumerus -48.9998 39.0603 58.164
lradius 12.8641
lwrist -58.3739
lhand -17.9471 -10.6629
lfingers 7.12502
lthumb 8.3214 19.1532
rfemur -4.12288 25.9172 24.5377
rtibia 1.53607
rfoot -12.3787 -24.261
rtoes 0.893577
lfemur 5.03275 -50.4757 -11.9448
ltibia -4.66318
lfoot -24.8479 56.0674
ltoes 11.1501
